<?xml version="1.0" encoding="UTF-8"?>
<svg id="Layer_1" xmlns="http://www.w3.org/2000/svg" viewBox="0 0 1080 1080">
  <defs>
    <style>
      .cls-1 {
        fill: #f1f2f2;
      }

      .cls-2 {
        fill: #646565;
      }

      .cls-3 {
        fill: #f3f3f3;
      }

      .cls-4 {
        fill: #3c3c3c;
      }

      .cls-5 {
        fill: #b5b5b6;
      }
    </style>
  </defs>
  <path class="cls-3" d="M457.97,460.17l52.03-33.54s3.8,44.06,0,43.41-52.03-9.87-52.03-9.87Z"/>
  <polygon class="cls-2" points="420 484.65 457.97 460.17 454.94 517.85 420 535.56 420 484.65"/>
  <polygon class="cls-5" points="510 470.04 454.94 517.85 457.97 460.17 510 470.04"/>
  <polygon class="cls-4" points="420 535.56 420 600 454.94 517.85 420 535.56"/>
  <path class="cls-2" d="M454.94,568.01v-50.16l-34.94,82.15s38.71,27.62,39.39,25.17-4.45-57.16-4.45-57.16Z"/>
  <polygon class="cls-4" points="510 657.5 510 615 457.3 594.24 459.39 625.17 510 657.5"/>
  <polygon class="cls-5" points="454.94 568.01 510 615 457.3 594.24 454.94 568.01"/>
  <path class="cls-3" d="M623.72,460.17l-52.03-33.54s-3.8,44.06,0,43.41,52.03-9.87,52.03-9.87Z"/>
  <polygon class="cls-2" points="661.69 484.65 623.72 460.17 626.74 517.85 661.69 535.56 661.69 484.65"/>
  <polygon class="cls-5" points="571.69 470.04 626.74 517.85 623.72 460.17 571.69 470.04"/>
  <polygon class="cls-4" points="661.69 535.56 661.69 600 626.74 517.85 661.69 535.56"/>
  <path class="cls-2" d="M626.74,568.01v-50.16s34.94,82.15,34.94,82.15c0,0-38.71,27.62-39.39,25.17s4.45-57.16,4.45-57.16Z"/>
  <polygon class="cls-4" points="571.69 657.5 571.69 615 624.39 594.24 622.29 625.17 571.69 657.5"/>
  <polygon class="cls-5" points="626.74 568.01 571.69 615 624.39 594.24 626.74 568.01"/>
  <polygon class="cls-2" points="542.52 422.5 540.66 657.5 562.56 615.56 561.63 467.36 542.52 422.5"/>
  <polygon class="cls-4" points="542.52 422.5 519.69 467.36 519.69 613.69 540.66 657.5 542.52 422.5"/>
  <polygon class="cls-2" points="519.69 467.36 541.95 495.14 542.17 467.36 519.69 467.36"/>
  <polygon class="cls-5" points="542.17 467.36 561.63 467.36 541.95 495.14 542.17 467.36"/>
  <polygon class="cls-1" points="542.17 467.36 561.63 467.36 542.52 422.5 542.17 467.36"/>
  <polygon class="cls-5" points="542.52 422.5 519.69 467.36 542.17 467.36 542.52 422.5"/>
</svg>
